<svg xmlns="http://www.w3.org/2000/svg" viewBox="200.12 143.29 194.32 195.32">
  <path fill="#1e5749" fill-rule="nonzero" d="M 393.433594 240.445312 C 393.433594 293.554688 350.382812 336.605469 297.277344 336.605469 C 244.167969 336.605469 201.117188 293.554688 201.117188 240.445312 C 201.117188 187.339844 244.167969 144.289062 297.277344 144.289062 C 350.382812 144.289062 393.433594 187.339844 393.433594 240.445312 "/>
  <path fill="#ffffff" fill-rule="nonzero" d="M 280.089844 255.988281 L 280.089844 228.164062 L 304.425781 228.164062 L 304.425781 208.984375 L 280.089844 208.984375 L 280.089844 181.882812 L 260.910156 181.882812 L 260.910156 208.984375 L 242.792969 208.984375 L 242.792969 228.164062 L 260.910156 228.164062 L 260.910156 255.988281 C 260.910156 283.402344 283.214844 305.707031 310.628906 305.707031 L 310.628906 286.523438 C 293.789062 286.523438 280.089844 272.824219 280.089844 255.988281 "/>
  <path fill="#ffffff" fill-rule="nonzero" d="M 350.730469 240.445312 C 350.730469 249.273438 343.574219 256.425781 334.75 256.425781 C 325.925781 256.425781 318.773438 249.273438 318.773438 240.445312 C 318.773438 231.621094 325.925781 224.46875 334.75 224.46875 C 343.574219 224.46875 350.730469 231.621094 350.730469 240.445312 "/>
</svg>
