<svg xmlns="http://www.w3.org/2000/svg" viewBox="0 0 1600 1000" preserveAspectRatio="xMidYMid slice">
  <defs>
    <linearGradient id="sky2" x1="0" y1="0" x2="0" y2="1">
      <stop offset="0" stop-color="#0a2214"/>
      <stop offset="0.6" stop-color="#07190e"/>
      <stop offset="1" stop-color="#041108"/>
    </linearGradient>
    <radialGradient id="glow2" cx="0.5" cy="0.25" r="0.75">
      <stop offset="0" stop-color="#2fa44a" stop-opacity="0.26"/>
      <stop offset="1" stop-color="#2fa44a" stop-opacity="0"/>
    </radialGradient>
    <filter id="grain2">
      <feTurbulence type="fractalNoise" baseFrequency="0.9" numOctaves="2" stitchTiles="stitch"/>
      <feColorMatrix type="saturate" values="0"/>
      <feComponentTransfer><feFuncA type="linear" slope="0.05"/></feComponentTransfer>
      <feComposite operator="over" in2="SourceGraphic"/>
    </filter>
  </defs>
  <rect width="1600" height="1000" fill="url(#sky2)"/>
  <rect width="1600" height="1000" fill="url(#glow2)"/>
  <g fill="none" stroke="#4fc063" stroke-opacity="0.12">
    <circle cx="800" cy="260" r="150" stroke-width="46"/>
    <circle cx="800" cy="260" r="290" stroke-width="60"/>
    <circle cx="800" cy="260" r="450" stroke-width="72"/>
  </g>
  <rect y="720" width="1600" height="280" fill="#020a05"/>
  <g>
    <g fill="#0e2f1a" stroke="#145426" stroke-width="4">
      <rect x="90" y="480" width="360" height="250" rx="10"/>
      <rect x="500" y="480" width="360" height="250" rx="10"/>
      <rect x="910" y="480" width="360" height="250" rx="10"/>
      <rect x="1320" y="480" width="360" height="250" rx="10"/>
    </g>
    <g fill="none" stroke="#7fe08f" stroke-opacity="0.28" stroke-width="20">
      <circle cx="270" cy="605" r="70"/>
      <circle cx="680" cy="605" r="70"/>
      <circle cx="1090" cy="605" r="70"/>
      <circle cx="1500" cy="605" r="70"/>
    </g>
    <g fill="#020a05">
      <circle cx="180" cy="742" r="34"/><circle cx="380" cy="742" r="34"/>
      <circle cx="590" cy="742" r="34"/><circle cx="790" cy="742" r="34"/>
      <circle cx="1000" cy="742" r="34"/><circle cx="1200" cy="742" r="34"/>
      <circle cx="1410" cy="742" r="34"/>
    </g>
  </g>
  <g stroke="#7fe08f" stroke-opacity="0.35" stroke-width="4" stroke-dasharray="26 34">
    <path d="M0 900 H1600"/>
  </g>
  <rect width="1600" height="1000" filter="url(#grain2)" opacity="0.5"/>
</svg>
